<svg width="170" height="48" viewBox="0 0 170 48" fill="none" xmlns="http://www.w3.org/2000/svg">
<g clip-path="url(#clip0_1_127)">
<path d="M164.336 7.7889C167.038 7.7889 169.232 6.06358 169.232 3.93933C169.232 1.81508 167.038 0.089756 164.336 0.089756C161.633 0.089756 159.439 1.81508 159.439 3.93933C159.439 6.06358 161.633 7.7889 164.336 7.7889Z" fill="#BD1923"/>
<path d="M129.871 10.1924C122.511 10.1924 117.944 15.3783 117.944 23.7357C117.944 32.0931 122.292 37.279 129.871 37.279C137.45 37.279 141.798 32.0931 141.798 23.7357C141.798 15.3783 137.34 10.1924 129.871 10.1924ZM127.976 15.0093C128.365 14.6104 128.824 14.411 129.392 14.411C131.536 14.411 132.753 17.5525 133.002 23.7557C133.192 28.4031 132.713 31.3451 131.586 32.5219C131.197 32.9208 130.739 33.1203 130.18 33.1203C128.006 33.1203 126.819 30.0486 126.57 23.7257C126.381 19.1182 126.859 16.1862 127.986 15.0093" fill="white"/>
<path d="M160.197 36.7804H169.102L169.013 36.3316C168.544 33.7386 168.604 30.6271 168.604 30.0187V9.94307L160.177 10.5215L160.267 10.9503C160.726 13.4336 160.696 16.9541 160.696 17.0039V30.1384C160.696 30.8564 160.746 33.8184 160.277 36.3216L160.187 36.7704L160.197 36.7804Z" fill="white"/>
<path d="M115.88 30.0287V0.089756L107.523 0.668189L107.613 1.09703C108.111 3.54041 108.021 6.93123 108.021 7.09079V11.2794C107.413 11.0202 106.855 10.8406 106.356 10.721C105.748 10.5813 105.06 10.5115 104.302 10.5115C102.726 10.5115 101.25 10.8706 99.9138 11.5687C98.5875 12.2668 97.4406 13.274 96.5032 14.5506C95.5758 15.8172 94.8478 17.343 94.3292 19.0883C93.8107 20.8236 93.5514 22.7484 93.5514 24.8028C93.5514 26.6179 93.7608 28.3133 94.1797 29.8292C94.5985 31.3551 95.1968 32.6815 95.9448 33.7885C96.7027 34.9055 97.6401 35.7731 98.7071 36.3715C99.7842 36.9798 101.001 37.279 102.327 37.279C103.653 37.279 104.81 37.0197 105.778 36.4912C106.555 36.0723 107.313 35.434 108.021 34.5963V36.7704L116.368 36.7904L116.279 36.3416C115.87 33.8084 115.87 30.1882 115.87 30.0187M106.506 31.365C106.157 31.7241 105.738 31.9036 105.229 31.9036C103.255 31.9036 102.178 29.1311 101.948 23.4265C101.779 19.2778 102.207 16.6349 103.225 15.5678C103.574 15.2088 103.993 15.0293 104.511 15.0293C106.456 15.0293 107.563 17.8616 107.792 23.4565C107.962 27.6352 107.533 30.2979 106.516 31.3551" fill="white"/>
<path d="M153.924 11.7781C152.997 12.4064 152.309 13.1245 151.671 14.1417L151.711 9.95304H151.641L143.274 10.5215L143.364 10.9503C143.872 13.3937 143.782 16.7845 143.772 16.9441V30.0486C143.772 30.7667 143.772 33.7286 143.344 36.3316L143.254 36.7904H152.149L152.06 36.3316C151.621 33.5392 151.621 30.5872 151.621 30.0187V22.8182C151.621 21.063 151.691 19.6967 152.239 19.0384C154.234 16.6549 158.232 19.6368 158.232 19.6368L159.05 10.5016H158.342C157.255 10.5016 155.62 10.6312 153.924 11.7881" fill="white"/>
<path d="M68.1316 13.7528C66.9848 11.3094 65.1897 10.0827 62.218 10.0927C57.9198 10.1226 54.4594 13.9821 54.4594 13.9821C54.4395 13.9323 54.3397 13.7228 54.3198 13.673C53.2029 11.2396 51.5375 10.0927 48.5757 10.0927C45.6139 10.0927 43.1208 12.1571 41.8044 13.4935V9.9331L33.0885 10.5016L33.1783 10.9304C33.6569 13.3937 33.6071 16.1562 33.6071 16.8244V30.1583C33.6071 30.1583 33.6071 33.7486 33.1982 36.3017L33.1084 36.7505H42.2831L42.1933 36.2917C41.7645 33.5791 41.7645 29.899 41.7645 29.899C41.7645 22.9578 41.7645 18.6894 41.7645 19.2678C41.7645 17.3331 42.662 15.7075 44.4571 15.6875H44.5069C45.8931 15.6376 47.2693 17.0339 47.2793 20.4247V30.0087C47.2793 31.4947 47.2394 33.978 46.8704 36.2917L46.7806 36.7405H55.9453L55.8556 36.2917C55.4068 33.6688 55.4666 30.7966 55.4666 29.9489V19.2379C55.4666 17.3031 56.3043 15.6975 58.0993 15.6775H58.1492C59.5354 15.6277 60.9116 17.0239 60.9215 20.4147V29.9988C60.9215 30.5971 60.9515 33.6489 60.5127 36.2817L60.4229 36.7305H69.5876L69.4978 36.2817C69.069 33.7885 69.079 30.5772 69.079 30.5373C69.079 30.5373 69.079 19.3576 69.079 19.198C69.079 16.8344 68.72 14.9595 68.1416 13.7228" fill="white"/>
<path d="M33.9162 36.2119C32.3704 33.3098 31.084 30.657 29.7577 27.5853C27.1748 21.5217 19.8052 0.947434 19.4761 0.029919V0H19.4661L9.71309 0.638271C9.71309 0.638271 9.8527 1.30646 9.86267 1.39622C10.461 4.95658 9.13469 10.6512 7.59893 15.3085C7.1402 16.6948 5.45486 22.0104 4.92632 23.6858C3.5601 28.0042 2.0044 32.9009 0.329033 36.2219L0.0498047 36.7704H7.45932L7.34962 36.3017C6.79117 33.9181 7.34962 31.8537 7.98786 29.4702L9.2743 25.0621H18.5886C19.526 27.695 20.7326 31.0958 21.331 33.1303C21.68 34.2173 21.7698 34.8556 21.9193 35.9028L22.049 36.7704H34.2253L33.9261 36.2119H33.9162ZM13.6023 9.80345L17.1725 20.7338H10.4909L13.6023 9.80345Z" fill="white"/>
<path d="M92.1752 36.8003L92.0754 36.3416C91.6167 34.1176 91.6267 31.1955 91.6267 30.2281C91.6267 29.4802 91.6267 19.936 91.6267 19.936C91.6267 16.1562 90.8688 13.7926 89.353 12.2269C87.9867 10.8207 85.6731 10.322 83.4493 10.322C78.4032 10.322 74.2946 11.7282 72.9284 14.3212C72.5694 14.9994 72.3899 15.7274 72.3899 16.3158C72.3899 18.111 73.8458 19.567 75.6409 19.567C76.3988 19.567 77.1068 19.3277 77.6553 18.8888C78.4232 18.2705 78.862 17.4228 79.3905 16.3657C80.0088 15.139 80.3977 14.5506 81.2454 14.4309C82.9407 14.2015 83.908 15.4781 83.908 20.4845C76.1694 21.1627 72.3599 23.5562 71.2131 27.1265C69.4281 32.7114 73.0879 37.3189 78.0542 37.3189C80.6271 37.3189 82.6814 36.4214 83.908 34.6462V36.7704H92.1652L92.1752 36.8003ZM81.006 32.3125C79.231 32.3125 78.2636 30.8066 78.2636 28.9815C78.2636 27.1565 79.3008 25.2217 81.6044 24.2543C82.3423 23.9451 83.1302 23.8255 83.908 23.8255V28.802C83.908 30.8564 82.9008 32.3225 81.006 32.3225" fill="white"/>
<path d="M59.8047 44.3499V43.5919H63.3848V44.3499H62.0485V47.9402H61.141V44.3499H59.8047Z" fill="white"/>
<path d="M64.4817 47.9402V43.5919H65.4091V45.3871H67.274V43.5919H68.1914V47.9402H67.274V46.145H65.4091V47.9402H64.4817Z" fill="white"/>
<path d="M69.4679 47.9402V43.5919H72.3998V44.3499H70.3854V45.3871H72.2502V46.145H70.3854V47.1822H72.4098V47.9402H69.4679Z" fill="white"/>
<path d="M76.4686 43.5919H75.5511V47.9501H76.4686V43.5919Z" fill="white"/>
<path d="M77.5756 44.3499V43.5919H81.1557V44.3499H79.8194V47.9402H78.9119V44.3499H77.5756Z" fill="white"/>
<path d="M82.472 47.9402H81.4847L82.9906 43.582H84.1773L85.6732 47.9402H84.6859L83.5989 44.5793H83.569L82.472 47.9402ZM82.4122 46.2348H84.7457V46.9528H82.4122V46.2348Z" fill="white"/>
<path d="M86.7103 47.9402V43.5919H87.6378V47.1822H89.5026V47.9402H86.7103Z" fill="white"/>
<path d="M91.537 43.5919H90.6195V47.9501H91.537V43.5919Z" fill="white"/>
<path d="M93.5713 47.9402H92.584L94.0898 43.582H95.2765L96.7724 47.9402H95.7851L94.6981 44.5793H94.6682L93.5713 47.9402ZM93.5114 46.2348H95.845V46.9528H93.5114V46.2348Z" fill="white"/>
<path d="M101.45 43.5919V47.9402H100.652L98.7569 45.1976H98.727V47.9402H97.8096V43.5919H98.6173L100.492 46.3245H100.532V43.5919H101.45Z" fill="white"/>
<path d="M104.631 47.9402V43.582H106.346C106.675 43.582 106.954 43.6418 107.194 43.7714C107.423 43.9011 107.603 44.0706 107.722 44.29C107.842 44.5094 107.902 44.7687 107.902 45.058C107.902 45.3472 107.842 45.6065 107.712 45.8259C107.583 46.0453 107.403 46.2148 107.174 46.3445C106.934 46.4642 106.655 46.534 106.316 46.534H105.219V45.796H106.166C106.346 45.796 106.486 45.766 106.605 45.7062C106.725 45.6464 106.805 45.5566 106.865 45.4469C106.924 45.3372 106.954 45.2076 106.954 45.0679C106.954 44.9283 106.924 44.7987 106.865 44.689C106.805 44.5793 106.725 44.4995 106.605 44.4396C106.486 44.3798 106.346 44.3499 106.166 44.3499H105.548V47.9501H104.631V47.9402Z" fill="white"/>
<path d="M109.019 47.9402V43.582H110.734C111.063 43.582 111.342 43.6418 111.581 43.7615C111.811 43.8812 111.99 44.0407 112.12 44.2601C112.24 44.4696 112.299 44.7289 112.299 45.0081C112.299 45.2873 112.24 45.5466 112.11 45.7561C111.98 45.9655 111.801 46.1251 111.571 46.2348C111.332 46.3445 111.053 46.4043 110.714 46.4043H109.567V45.6663H110.564C110.744 45.6663 110.883 45.6464 111.003 45.5965C111.123 45.5466 111.203 45.4768 111.262 45.3771C111.322 45.2774 111.352 45.1577 111.352 45.0181C111.352 44.8784 111.322 44.7488 111.262 44.6491C111.203 44.5493 111.123 44.4696 111.003 44.4197C110.883 44.3698 110.744 44.3399 110.564 44.3399H109.946V47.9402H109.029H109.019ZM111.372 45.9655L112.449 47.9501H111.432L110.375 45.9655H111.372Z" fill="white"/>
<path d="M117.465 45.7661C117.465 46.2448 117.375 46.6437 117.196 46.9728C117.016 47.3019 116.777 47.5612 116.468 47.7307C116.159 47.9102 115.81 47.99 115.431 47.99C115.052 47.99 114.693 47.9003 114.394 47.7307C114.085 47.5512 113.845 47.3019 113.666 46.9728C113.486 46.6437 113.396 46.2348 113.396 45.7661C113.396 45.2973 113.486 44.8884 113.666 44.5593C113.845 44.2302 114.085 43.9709 114.394 43.8014C114.703 43.6219 115.052 43.5421 115.431 43.5421C115.81 43.5421 116.159 43.6318 116.468 43.8014C116.777 43.9809 117.016 44.2302 117.196 44.5593C117.375 44.8884 117.465 45.2973 117.465 45.7661ZM116.528 45.7661C116.528 45.4569 116.478 45.1976 116.388 44.9882C116.298 44.7787 116.169 44.6192 115.999 44.5095C115.83 44.3998 115.64 44.3499 115.421 44.3499C115.201 44.3499 115.002 44.3998 114.842 44.5095C114.673 44.6192 114.543 44.7787 114.454 44.9882C114.364 45.1976 114.314 45.4569 114.314 45.7661C114.314 46.0752 114.364 46.3345 114.454 46.5439C114.543 46.7534 114.673 46.9129 114.842 47.0227C115.012 47.1324 115.201 47.1822 115.421 47.1822C115.64 47.1822 115.84 47.1324 115.999 47.0227C116.169 46.9129 116.298 46.7534 116.388 46.5439C116.478 46.3345 116.528 46.0752 116.528 45.7661Z" fill="white"/>
<path d="M118.293 44.3499V43.5919H121.873V44.3499H120.537V47.9402H119.629V44.3499H118.293Z" fill="white"/>
<path d="M122.98 47.9402V43.5919H125.912V44.3499H123.897V45.3871H125.762V46.145H123.897V47.1822H125.922V47.9402H122.98Z" fill="white"/>
<path d="M128.076 43.5919H127.158V47.9501H128.076V43.5919Z" fill="white"/>
<path d="M132.992 43.5919V47.9402H132.195L130.3 45.1976H130.27V47.9402H129.352V43.5919H130.16L132.035 46.3245H132.075V43.5919H132.992Z" fill="white"/>
<path d="M140.013 45.1178H139.085C139.066 44.9981 139.036 44.8884 138.986 44.7987C138.936 44.7089 138.866 44.6192 138.786 44.5593C138.707 44.4895 138.607 44.4396 138.507 44.4097C138.397 44.3698 138.288 44.3599 138.158 44.3599C137.929 44.3599 137.739 44.4197 137.57 44.5294C137.4 44.6391 137.27 44.7987 137.181 45.0181C137.091 45.2275 137.041 45.4868 137.041 45.786C137.041 46.0852 137.091 46.3545 137.181 46.5639C137.27 46.7733 137.4 46.9329 137.57 47.0426C137.739 47.1523 137.929 47.2022 138.148 47.2022C138.268 47.2022 138.387 47.1822 138.487 47.1523C138.587 47.1224 138.687 47.0725 138.766 47.0127C138.846 46.9528 138.916 46.8731 138.976 46.7833C139.026 46.6935 139.066 46.5938 139.085 46.4741H140.013C139.993 46.6736 139.933 46.8731 139.833 47.0526C139.734 47.2421 139.614 47.4016 139.444 47.5512C139.285 47.7008 139.095 47.8105 138.866 47.9003C138.647 47.9801 138.397 48.0299 138.118 48.0299C137.729 48.0299 137.38 47.9402 137.081 47.7706C136.772 47.5911 136.533 47.3418 136.363 47.0027C136.184 46.6736 136.094 46.2647 136.094 45.796C136.094 45.3272 136.184 44.9183 136.363 44.5793C136.543 44.2502 136.782 43.9909 137.091 43.8213C137.4 43.6418 137.739 43.562 138.128 43.562C138.377 43.562 138.617 43.6019 138.826 43.6717C139.046 43.7415 139.235 43.8413 139.405 43.9809C139.574 44.1205 139.704 44.2801 139.813 44.4795C139.923 44.679 139.983 44.8984 140.013 45.1477" fill="white"/>
<path d="M145.189 45.7661C145.189 46.2448 145.099 46.6437 144.919 46.9728C144.74 47.3019 144.501 47.5612 144.191 47.7307C143.882 47.9102 143.533 47.99 143.154 47.99C142.775 47.99 142.416 47.9003 142.117 47.7307C141.808 47.5512 141.569 47.3019 141.389 46.9728C141.21 46.6437 141.12 46.2348 141.12 45.7661C141.12 45.2973 141.21 44.8884 141.389 44.5593C141.569 44.2302 141.808 43.9709 142.117 43.8014C142.426 43.6219 142.775 43.5421 143.154 43.5421C143.533 43.5421 143.882 43.6318 144.191 43.8014C144.501 43.9809 144.74 44.2302 144.919 44.5593C145.099 44.8884 145.189 45.2973 145.189 45.7661ZM144.251 45.7661C144.251 45.4569 144.201 45.1976 144.112 44.9882C144.022 44.7787 143.892 44.6192 143.723 44.5095C143.553 44.3998 143.364 44.3499 143.144 44.3499C142.925 44.3499 142.725 44.3998 142.566 44.5095C142.396 44.6192 142.267 44.7787 142.177 44.9882C142.087 45.1976 142.037 45.4569 142.037 45.7661C142.037 46.0752 142.087 46.3345 142.177 46.5439C142.267 46.7534 142.396 46.9129 142.566 47.0227C142.735 47.1324 142.925 47.1822 143.144 47.1822C143.364 47.1822 143.563 47.1324 143.723 47.0227C143.892 46.9129 144.022 46.7534 144.112 46.5439C144.201 46.3345 144.251 46.0752 144.251 45.7661Z" fill="white"/>
<path d="M146.375 43.5919H147.512L148.709 46.514H148.769L149.965 43.5919H151.102V47.9402H150.205V45.1078H150.165L149.038 47.9202H148.44L147.313 45.0979H147.273V47.9402H146.375V43.5919Z" fill="white"/>
<path d="M152.369 47.9402V43.582H154.084C154.413 43.582 154.692 43.6418 154.932 43.7714C155.161 43.9011 155.341 44.0706 155.46 44.29C155.58 44.5094 155.64 44.7687 155.64 45.058C155.64 45.3472 155.58 45.6065 155.45 45.8259C155.321 46.0453 155.141 46.2148 154.912 46.3445C154.672 46.4642 154.393 46.534 154.054 46.534H152.957V45.796H153.905C154.084 45.796 154.224 45.766 154.343 45.7062C154.463 45.6464 154.543 45.5566 154.603 45.4469C154.662 45.3372 154.692 45.2076 154.692 45.0679C154.692 44.9283 154.662 44.7987 154.603 44.689C154.543 44.5793 154.463 44.4995 154.343 44.4396C154.224 44.3798 154.084 44.3499 153.905 44.3499H153.286V47.9501H152.369V47.9402Z" fill="white"/>
<path d="M157.006 47.9402H156.019L157.525 43.582H158.711L160.207 47.9402H159.22L158.133 44.5793H158.103L157.006 47.9402ZM156.946 46.2348H159.28V46.9528H156.946V46.2348Z" fill="white"/>
<path d="M164.884 43.5919V47.9402H164.096L162.202 45.1976H162.172V47.9402H161.244V43.5919H162.052L163.937 46.3245H163.977V43.5919H164.884Z" fill="white"/>
<path d="M165.911 43.5919H166.938L167.936 45.4669H167.976L168.963 43.5919H170L168.404 46.4043V47.9402H167.497V46.4043L165.911 43.5919Z" fill="white"/>
<path d="M56.0052 45.786H0V46.7633H56.0052V45.786Z" fill="white"/>
</g>
<defs>
<clipPath id="clip0_1_127">
<rect width="170" height="48" fill="white"/>
</clipPath>
</defs>
</svg>
